# Blender v2.79 (sub 0) OBJ File: 'props.blend'
# www.blender.org
mtllib roof_v2.mtl
o roof_v2_Cube.003
v -0.399173 2.052789 -0.113090
v -0.399173 2.052789 0.108163
v -0.177920 2.052789 0.108163
v -0.216805 2.052789 -0.146914
v -0.153073 1.976299 -0.140754
v -0.114188 1.976299 0.114323
v -1.000000 2.000000 0.142857
v -1.000000 2.000000 -0.142857
v 0.135721 1.976299 0.162602
v 0.068399 1.976299 -0.070634
v 0.135692 2.026087 -0.068170
v 0.203014 2.026087 0.165066
v 1.000000 2.000000 -0.166285
v 1.000000 2.000000 0.142857
v 0.395612 2.026087 0.116787
v 0.395612 2.026087 -0.104467
v 0.458200 1.988260 -0.107823
v 0.458200 1.988260 0.113431
v -0.195336 2.000000 -1.000000
v 0.227748 2.000000 -1.000000
v 0.643738 1.988260 0.113431
v 0.679454 1.988260 -0.069322
v 0.743915 1.930806 -0.070644
v 0.708199 1.930806 0.112110
v 0.207847 2.000000 1.000000
v -0.142857 2.000000 1.000000
v 0.965168 1.930806 0.112110
v 0.965168 1.930806 -0.127286
v -0.109785 2.052789 0.178604
v -0.126886 2.052789 0.399858
v 0.190289 2.027482 -0.714286
v -0.142857 2.027482 -0.714286
v 0.111468 2.052789 0.399858
v 0.140124 2.052789 0.226883
v -0.126678 1.958288 0.460802
v -0.078073 1.958288 0.682055
v 0.142857 2.065310 -0.428571
v -0.142857 2.065310 -0.428571
v 0.111676 1.958288 0.682055
v 0.111676 1.958288 0.460802
v 0.714286 2.027482 -0.093140
v 0.428571 2.065310 -0.142857
v 0.092926 2.045494 -0.095986
v -0.193071 2.045494 -0.186535
v -0.428571 2.065310 -0.142857
v -0.714286 2.027482 -0.162090
v 0.668164 2.027482 0.142857
v 0.428571 2.065310 0.142857
v 0.179861 2.045494 0.205202
v -0.142857 2.045494 0.142857
v -0.428571 2.065310 0.142857
v -0.662283 2.027482 0.214475
v -0.964837 1.930806 -0.107672
v -0.964837 1.930806 0.113581
v 0.142857 2.065310 0.428571
v -0.164940 2.065310 0.428571
v -0.703313 1.930806 0.169041
v -0.743583 1.930806 -0.122566
v -1.000000 2.000000 -1.000000
v 1.000000 2.000000 1.000000
v 0.142857 2.027482 0.714286
v -0.102173 2.027482 0.714286
v -1.000000 2.000000 1.000000
v 1.000000 2.000000 -1.000000
v -0.457869 1.988260 -0.107672
v -0.457869 1.988260 0.113581
v -0.638852 1.988260 0.169041
v -0.679122 1.988260 -0.122566
v 0.104978 2.026087 -0.396161
v 0.066312 2.026087 -0.138611
v -0.155160 2.026087 -0.208731
v -0.116275 2.026087 -0.396161
v 0.150033 2.014962 -0.682055
v 0.113302 2.014962 -0.460802
v -0.107951 2.014962 -0.460802
v -0.107951 2.014962 -0.682055
v 0.180868 1.930806 -0.967770
v 0.151861 1.930806 -0.746516
v -0.106123 1.930806 -0.746516
v -0.146762 1.930806 -0.967770
v 0.116587 1.960778 0.746516
v 0.166915 1.960778 0.967770
v -0.104666 1.960778 0.967770
v -0.073162 1.960778 0.746516
v -0.672983 1.974918 -0.216088
v -0.908939 1.974918 -0.200204
v -0.626264 2.003922 0.259539
v -0.905167 2.003922 0.200394
v 0.908497 2.026281 -0.216590
v 0.672541 2.024985 -0.156183
v 0.436585 2.028521 -0.197242
v 0.159393 2.021785 -0.158534
v -0.242539 2.058340 -0.236275
v -0.437027 2.012745 -0.200204
v 0.907920 1.958612 0.200192
v 0.633875 1.941349 0.200192
v 0.436007 2.071320 0.247053
v 0.230611 2.047729 0.251679
v -0.197298 2.041750 0.200394
v -0.433254 2.041750 0.200394
v 0.200051 1.968726 0.672105
v 0.200051 2.031492 0.436148
v -0.163699 2.003922 0.672307
v -0.215535 2.041750 0.436350
v 0.200628 2.042744 -0.433199
v -0.201070 2.012745 -0.436161
v 0.239800 2.004917 -0.669155
v -0.201070 1.974918 -0.672117
v -0.908939 1.974918 -0.908073
v -0.244410 1.974918 -0.908073
v 0.270735 2.004917 -0.905111
v -0.905167 2.003922 0.908263
v -0.197298 2.003922 0.908263
v 0.907920 1.978738 0.908061
v 0.253723 1.960851 0.908061
v 0.944722 1.965327 -0.905111
vt 0.543934 0.569831
vt 0.549934 0.454057
vt 0.577927 0.603351
vt 0.519956 0.483243
vt 0.453729 0.549226
vt 0.438738 0.456002
vt 0.683769 0.461152
vt 0.702878 0.440477
vt 0.569900 0.470174
vt 0.592399 0.581941
vt 0.705597 0.574434
vt 0.680826 0.555454
vt 0.837045 0.453342
vt 0.731426 0.468885
vt 0.739852 0.545787
vt 0.827998 0.571789
vt 0.816177 0.474390
vt 0.948109 0.460120
vt 0.976062 0.425735
vt 0.865218 0.541336
vt 0.981522 0.577854
vt 0.944863 0.541176
vt 0.878339 0.486114
vt 0.435570 0.595316
vt 0.420909 0.580445
vt 0.412867 0.715635
vt 0.430808 0.701693
vt 0.557655 0.713797
vt 0.558640 0.614614
vt 0.541961 0.699172
vt 0.451828 0.750801
vt 0.434319 0.855372
vt 0.525098 0.824956
vt 0.557706 0.850516
vt 0.523792 0.758415
vt 0.464628 0.820615
vt 0.113221 0.467684
vt 0.007921 0.427889
vt 0.153875 0.429538
vt 0.037170 0.466539
vt 0.000099 0.576178
vt 0.128370 0.563057
vt 0.165456 0.605450
vt 0.038308 0.544499
vt 0.941660 0.075699
vt 0.972004 0.027764
vt 0.288681 0.576383
vt 0.397278 0.605436
vt 0.284612 0.604084
vt 0.564420 0.302687
vt 0.613452 0.188107
vt 0.593638 0.299544
vt 0.396861 0.950043
vt 0.404924 0.836407
vt 0.407725 0.420180
vt 0.406641 0.564774
vt 0.305968 0.455302
vt 0.394988 0.438974
vt 0.290908 0.439813
vt 0.303088 0.560194
vt 0.252405 0.547585
vt 0.173492 0.453693
vt 0.259455 0.471389
vt 0.185226 0.575477
vt 0.534209 0.433551
vt 0.452988 0.324159
vt 0.543874 0.321772
vt 0.434837 0.300432
vt 0.428828 0.406743
vt 0.543155 0.275359
vt 0.451121 0.182607
vt 0.570050 0.182755
vt 0.588803 0.168833
vt 0.456300 0.278082
vt 0.432159 0.166189
vt 0.565771 0.060455
vt 0.471583 0.124678
vt 0.452822 0.052568
vt 0.598987 0.030350
vt 0.550549 0.133245
vt 0.418796 0.024286
vt 0.531512 0.885966
vt 0.446011 0.969488
vt 0.461637 0.882702
vt 0.559612 0.970572
vt 0.584823 0.990856
vt 0.423385 0.992282
vt 0.398233 0.292913
vt 0.284115 0.403859
vt 0.172022 0.393663
vt 0.183695 0.631830
vt 0.050531 0.954102
vt 0.595143 0.834110
vt 0.589711 0.719459
vt 0.703735 0.627498
vt 0.706698 0.409761
vt 0.817563 0.427087
vt 0.396231 0.182009
vt 0.620951 0.075568
vt 0.054655 0.400043
vt 0.044542 0.600412
vt 0.930065 0.401206
vt 0.385836 0.719715
vt 0.067422 0.049475
vt 0.022667 0.000099
vt 0.578575 0.427175
vt 0.389501 0.068486
vt 0.384443 0.395943
vt 0.601086 0.625307
vt 0.930772 0.952584
vt 0.976458 0.999900
vt 0.936303 0.607182
vt 0.817485 0.616421
vt 0.004302 0.999901
vt 0.611357 0.944914
vt 0.806813 0.547086
vn 0.8787 -0.4044 -0.2536
vn 0.0000 -1.0000 0.0000
vn -0.0637 -0.6702 -0.7394
vn -0.4830 -0.8645 0.1394
vn 0.1958 -0.8338 0.5161
vn 0.7656 -0.6433 0.0000
vn 0.1103 -0.3759 -0.9201
vn -0.9334 -0.3589 0.0000
vn -0.0594 -0.3760 0.9247
vn 0.7832 -0.6026 0.1531
vn -0.2637 -0.3695 -0.8910
vn -0.9277 -0.3265 -0.1813
vn -0.0259 -0.3127 0.9495
vn 0.8932 -0.4496 0.0000
vn -0.0465 -0.9694 0.2409
vn 0.1328 -0.9880 0.0788
vn 0.0000 -0.9166 0.3997
vn -0.1467 -0.9872 0.0633
vn 0.0000 -0.2884 -0.9575
vn -0.9431 -0.2862 0.1693
vn 0.0000 -0.4222 0.9065
vn 0.9562 -0.2902 -0.0384
vn -0.0268 -0.3713 -0.9281
vn -0.8915 -0.4530 0.0000
vn -0.1652 -0.3612 0.9177
vn 0.9332 -0.3355 -0.1289
vn 0.5314 -0.8471 0.0000
vn 0.0000 -0.9254 -0.3789
vn -0.3561 -0.9301 0.0900
vn 0.3292 -0.9431 0.0469
vn -0.1708 -0.4353 0.8840
vn -0.8941 -0.4266 0.1363
vn 0.2746 -0.4151 -0.8673
vn -0.2378 -0.9706 0.0363
vn -0.0685 -0.9880 -0.1385
vn -0.3918 -0.9200 0.0000
vn -0.0555 -0.9873 0.1485
vn 0.9347 -0.3554 0.0000
vn 0.3190 -0.6298 0.7082
vn -0.7924 -0.6001 0.1094
vn 0.1357 -0.6403 -0.7561
vn 0.7468 -0.6611 0.0727
vn -0.1544 -0.8593 0.4876
vn -0.5289 -0.8299 -0.1777
vn 0.0000 -0.6370 -0.7709
vn 0.4257 -0.8851 0.1879
vn 0.0000 -0.5391 0.8422
vn -0.7946 -0.6019 0.0797
vn 0.0000 -0.9321 -0.3621
vn 0.8502 -0.5016 0.1597
vn 0.0000 -0.3163 0.9487
vn -0.8434 -0.4976 0.2028
vn 0.0000 -0.4222 -0.9065
vn 0.7619 -0.6049 -0.2315
vn 0.0000 -0.6349 0.7726
vn -0.7719 -0.6129 -0.1689
vn 0.0000 -0.4351 -0.9004
vn 0.1469 -0.9782 0.1469
vn -0.0429 -0.9655 -0.2568
vn -0.0255 -0.9978 0.0605
vn 0.7036 -0.7044 0.0933
vn 0.0252 -0.8775 -0.4789
vn -0.0585 -0.9952 0.0781
vn 0.0482 -0.6971 0.7154
vn -0.7445 -0.6618 -0.0876
vn 0.1018 -0.9897 -0.1003
vn -0.1509 -0.9619 -0.2280
vn 0.3821 -0.8957 -0.2275
vn 0.0000 -0.9647 -0.2632
vn -0.1540 -0.9780 0.1407
vn -0.2656 -0.9641 0.0000
vn 0.0991 -0.8174 0.5675
vn -0.3766 -0.9251 -0.0494
vn 0.4574 -0.8893 0.0015
vn -0.4302 -0.8950 -0.1179
vn -0.1096 -0.9833 -0.1449
vn 0.0000 -0.9991 -0.0427
vn 0.6190 -0.7281 0.2945
vn 0.0738 -0.7406 0.6679
vn -0.4873 -0.8591 -0.1563
vn 0.0000 -0.9743 0.2253
vn 0.0355 -0.5635 -0.8253
vn 0.1524 -0.9851 0.0801
vn 0.4231 -0.9057 0.0258
vn -0.5325 -0.8420 0.0866
vn 0.0413 -0.9991 0.0000
vn 0.0718 -0.9970 -0.0305
vn -0.5827 -0.8109 0.0545
vn -0.0694 -0.8651 -0.4968
vn 0.1854 -0.6472 0.7394
vn 0.1371 -0.6003 -0.7880
vn 0.0000 -0.6001 0.7999
vn -0.2375 -0.2886 -0.9275
vn 0.0000 -0.4061 0.9138
vn -0.3297 -0.9437 -0.0255
vn 0.3268 -0.9435 0.0541
vn -0.8940 -0.4028 0.1964
vn 0.9117 -0.4108 0.0000
vn -0.0591 -0.4762 -0.8774
vn -0.1841 -0.4609 0.8682
vn -0.3096 -0.9485 0.0677
vn -0.0686 -0.9892 -0.1293
vn -0.4473 -0.8933 0.0440
vn 0.0722 -0.9937 -0.0853
vn 0.0000 -0.9406 0.3395
vn -0.0620 -0.9404 -0.3343
vn 0.2647 -0.4288 0.8637
vn 0.0605 -0.4336 -0.8991
vn 0.5053 -0.8596 0.0759
vn -0.7529 -0.6393 -0.1562
vn 0.8143 -0.5645 0.1352
vn -0.3376 -0.9413 0.0000
vn 0.9084 -0.4008 0.1191
vn -0.9023 -0.3981 0.1657
vn 0.8752 -0.4409 -0.1991
vn -0.8860 -0.4463 -0.1262
vn 0.1512 -0.9760 0.1565
vn 0.2666 -0.9262 0.2666
vn 0.1496 -0.9791 -0.1380
vn 0.1719 -0.9661 -0.1926
vn -0.4940 -0.8370 0.2355
vn 0.0628 -0.9976 0.0284
vn 0.0273 -0.9988 -0.0395
vn 0.1123 -0.9913 -0.0686
vn 0.0781 -0.9781 -0.1927
vn 0.0284 -0.9956 0.0896
vn 0.0139 -0.9972 -0.0740
vn -0.0335 -0.9972 0.0673
vn -0.0586 -0.9982 -0.0077
vn -0.1844 -0.9748 0.1257
vn 0.6568 -0.7446 0.1194
vn 0.0345 -0.9259 -0.3763
vn 0.0000 -0.9393 -0.3432
vn 0.1166 -0.8286 0.5475
vn -0.4733 -0.8513 -0.2264
vn 0.1123 -0.8409 -0.5294
vn 0.0134 -0.9994 0.0307
vn 0.4748 -0.8529 -0.2172
vn -0.1075 -0.8308 0.5461
vn 0.1159 -0.8817 0.4574
vn -0.0755 -0.9935 0.0857
vn 0.6192 -0.7770 -0.1137
vn -0.3697 -0.9206 -0.1258
vn 0.2862 -0.7270 0.6242
vn -0.1443 -0.9833 -0.1104
vn 0.0444 -0.6987 0.7141
vn -0.0322 -0.9960 0.0830
vn 0.0250 -0.9152 0.4022
vn -0.0628 -0.7586 -0.6485
vn 0.4261 -0.9041 0.0329
vn 0.2250 -0.9744 0.0000
vn -0.0835 -0.5289 -0.8445
vn 0.1151 -0.9921 0.0490
vn -0.6639 -0.7370 0.1264
usemtl roof_v2_material
s off
f 9/1/1 43/2/1 49/3/1
f 10/4/2 6/5/2 5/6/2
f 16/7/3 43/2/3 42/8/3
f 11/9/4 49/3/4 43/2/4
f 12/10/5 48/11/5 49/3/5
f 48/11/6 16/7/6 42/8/6
f 15/12/2 11/9/2 16/7/2
f 41/13/7 17/14/7 42/8/7
f 17/14/8 48/11/8 42/8/8
f 18/15/9 47/16/9 48/11/9
f 47/16/10 22/17/10 41/13/10
f 22/17/2 18/15/2 17/14/2
f 28/18/11 41/13/11 13/19/11
f 41/13/12 24/20/12 47/16/12
f 24/20/13 14/21/13 47/16/13
f 14/21/14 28/18/14 13/19/14
f 27/22/2 23/23/2 28/18/2
f 49/3/15 29/24/15 50/25/15
f 29/24/16 56/26/16 50/25/16
f 30/27/17 55/28/17 56/26/17
f 55/28/18 34/29/18 49/3/18
f 33/30/2 29/24/2 34/29/2
f 55/28/19 35/31/19 56/26/19
f 35/31/20 62/32/20 56/26/20
f 62/32/21 39/33/21 61/34/21
f 61/34/22 40/35/22 55/28/22
f 40/35/2 36/36/2 35/31/2
f 58/37/23 8/38/23 46/39/23
f 53/40/24 7/41/24 8/38/24
f 7/41/25 57/42/25 52/43/25
f 57/42/26 46/39/26 52/43/26
f 58/37/2 54/44/2 53/40/2
f 13/19/27 116/45/27 64/46/27
f 51/47/28 99/48/28 100/49/28
f 37/50/29 107/51/29 105/52/29
f 62/32/30 113/53/30 103/54/30
f 50/25/31 9/1/31 49/3/31
f 5/6/32 50/25/32 44/55/32
f 43/2/33 5/6/33 44/55/33
f 3/56/2 1/57/2 4/58/2
f 3/56/34 44/55/34 50/25/34
f 51/47/35 3/56/35 50/25/35
f 45/59/36 2/60/36 51/47/36
f 4/58/37 45/59/37 44/55/37
f 66/61/2 68/62/2 65/63/2
f 51/47/38 65/63/38 45/59/38
f 67/64/39 51/47/39 52/43/39
f 68/62/40 52/43/40 46/39/40
f 45/59/41 68/62/41 46/39/41
f 70/65/2 72/66/2 69/67/2
f 43/2/42 69/67/42 37/50/42
f 44/55/43 70/65/43 43/2/43
f 38/68/44 71/69/44 44/55/44
f 69/67/45 38/68/45 37/50/45
f 74/70/2 76/71/2 73/72/2
f 37/50/46 73/72/46 31/73/46
f 75/74/47 37/50/47 38/68/47
f 32/75/48 75/74/48 38/68/48
f 73/72/49 32/75/49 31/73/49
f 77/76/2 79/77/2 80/78/2
f 31/73/50 77/76/50 20/79/50
f 32/75/51 78/80/51 31/73/51
f 80/78/52 32/75/52 19/81/52
f 20/79/53 80/78/53 19/81/53
f 81/82/2 83/83/2 84/84/2
f 82/85/54 61/34/54 25/86/54
f 26/87/55 82/85/55 25/86/55
f 62/32/56 83/83/56 26/87/56
f 61/34/57 84/84/57 62/32/57
f 106/88/58 94/89/58 85/90/58
f 87/91/2 103/54/2 112/92/2
f 101/93/59 102/94/59 97/95/59
f 91/96/60 107/51/60 90/97/60
f 38/68/61 108/98/61 32/75/61
f 52/43/62 100/49/62 87/91/62
f 20/79/63 116/45/63 111/99/63
f 46/39/64 86/100/64 85/90/64
f 55/28/65 101/93/65 61/34/65
f 52/43/66 88/101/66 7/41/66
f 41/13/67 89/102/67 13/19/67
f 56/26/68 103/54/68 104/103/68
f 19/81/69 109/104/69 59/105/69
f 42/8/70 90/97/70 41/13/70
f 8/38/71 109/104/71 86/100/71
f 42/8/72 92/106/72 91/96/72
f 31/73/73 111/99/73 107/51/73
f 32/75/74 110/107/74 19/81/74
f 37/50/75 92/106/75 43/2/75
f 45/59/76 93/108/76 44/55/76
f 26/87/77 112/92/77 113/53/77
f 38/68/78 93/108/78 106/88/78
f 45/59/79 85/90/79 94/89/79
f 55/28/80 98/109/80 102/94/80
f 25/86/81 114/110/81 60/111/81
f 47/16/82 95/112/82 96/113/82
f 56/26/83 99/48/83 50/25/83
f 14/21/84 114/110/84 95/112/84
f 48/11/85 96/113/85 97/95/85
f 7/41/86 112/92/86 63/114/86
f 48/11/87 98/109/87 49/3/87
f 61/34/88 115/115/88 25/86/88
f 9/1/1 10/4/1 43/2/1
f 10/4/2 9/1/2 6/5/2
f 16/7/89 11/9/89 43/2/89
f 11/9/4 12/10/4 49/3/4
f 12/10/90 15/12/90 48/11/90
f 48/11/6 15/12/6 16/7/6
f 15/12/2 12/10/2 11/9/2
f 41/13/91 22/17/91 17/14/91
f 17/14/8 18/15/8 48/11/8
f 18/15/92 21/116/92 47/16/92
f 47/16/10 21/116/10 22/17/10
f 22/17/2 21/116/2 18/15/2
f 28/18/93 23/23/93 41/13/93
f 41/13/12 23/23/12 24/20/12
f 24/20/94 27/22/94 14/21/94
f 14/21/14 27/22/14 28/18/14
f 27/22/2 24/20/2 23/23/2
f 49/3/15 34/29/15 29/24/15
f 29/24/95 30/27/95 56/26/95
f 30/27/17 33/30/17 55/28/17
f 55/28/96 33/30/96 34/29/96
f 33/30/2 30/27/2 29/24/2
f 55/28/19 40/35/19 35/31/19
f 35/31/97 36/36/97 62/32/97
f 62/32/21 36/36/21 39/33/21
f 61/34/98 39/33/98 40/35/98
f 40/35/2 39/33/2 36/36/2
f 58/37/99 53/40/99 8/38/99
f 53/40/24 54/44/24 7/41/24
f 7/41/100 54/44/100 57/42/100
f 57/42/26 58/37/26 46/39/26
f 58/37/2 57/42/2 54/44/2
f 13/19/101 89/102/101 116/45/101
f 51/47/102 50/25/102 99/48/102
f 37/50/103 31/73/103 107/51/103
f 62/32/104 26/87/104 113/53/104
f 50/25/31 6/5/31 9/1/31
f 5/6/32 6/5/32 50/25/32
f 43/2/33 10/4/33 5/6/33
f 3/56/2 2/60/2 1/57/2
f 3/56/34 4/58/34 44/55/34
f 51/47/105 2/60/105 3/56/105
f 45/59/36 1/57/36 2/60/36
f 4/58/106 1/57/106 45/59/106
f 66/61/2 67/64/2 68/62/2
f 51/47/38 66/61/38 65/63/38
f 67/64/107 66/61/107 51/47/107
f 68/62/40 67/64/40 52/43/40
f 45/59/108 65/63/108 68/62/108
f 70/65/2 71/69/2 72/66/2
f 43/2/109 70/65/109 69/67/109
f 44/55/43 71/69/43 70/65/43
f 38/68/110 72/66/110 71/69/110
f 69/67/45 72/66/45 38/68/45
f 74/70/2 75/74/2 76/71/2
f 37/50/111 74/70/111 73/72/111
f 75/74/47 74/70/47 37/50/47
f 32/75/112 76/71/112 75/74/112
f 73/72/49 76/71/49 32/75/49
f 77/76/2 78/80/2 79/77/2
f 31/73/113 78/80/113 77/76/113
f 32/75/51 79/77/51 78/80/51
f 80/78/114 79/77/114 32/75/114
f 20/79/53 77/76/53 80/78/53
f 81/82/2 82/85/2 83/83/2
f 82/85/115 81/82/115 61/34/115
f 26/87/55 83/83/55 82/85/55
f 62/32/116 84/84/116 83/83/116
f 61/34/57 81/82/57 84/84/57
f 85/90/2 86/100/2 109/104/2
f 109/104/2 110/107/2 108/98/2
f 108/98/117 106/88/117 85/90/117
f 93/108/118 94/89/118 106/88/118
f 85/90/2 109/104/2 108/98/2
f 87/91/119 100/49/119 104/103/119
f 104/103/120 103/54/120 87/91/120
f 100/49/2 99/48/2 104/103/2
f 112/92/2 88/101/2 87/91/2
f 103/54/2 113/53/2 112/92/2
f 97/95/121 96/113/121 114/110/121
f 95/112/122 114/110/122 96/113/122
f 115/115/123 101/93/123 114/110/123
f 102/94/124 98/109/124 97/95/124
f 97/95/125 114/110/125 101/93/125
f 116/45/126 89/102/126 90/97/126
f 91/96/127 92/106/127 105/52/127
f 116/45/128 90/97/128 107/51/128
f 107/51/129 111/99/129 116/45/129
f 91/96/130 105/52/130 107/51/130
f 38/68/131 106/88/131 108/98/131
f 52/43/132 51/47/132 100/49/132
f 20/79/133 64/46/133 116/45/133
f 46/39/134 8/38/134 86/100/134
f 55/28/135 102/94/135 101/93/135
f 52/43/136 87/91/136 88/101/136
f 41/13/137 90/97/137 89/102/137
f 56/26/138 62/32/138 103/54/138
f 19/81/69 110/107/69 109/104/69
f 42/8/139 91/96/139 90/97/139
f 8/38/71 59/105/71 109/104/71
f 42/8/140 43/2/140 92/106/140
f 31/73/141 20/79/141 111/99/141
f 32/75/142 108/98/142 110/107/142
f 37/50/143 105/52/143 92/106/143
f 45/59/144 94/89/144 93/108/144
f 26/87/77 63/114/77 112/92/77
f 38/68/145 44/55/145 93/108/145
f 45/59/146 46/39/146 85/90/146
f 55/28/147 49/3/147 98/109/147
f 25/86/148 115/115/148 114/110/148
f 47/16/149 14/21/149 95/112/149
f 56/26/150 104/103/150 99/48/150
f 14/21/151 60/111/151 114/110/151
f 48/11/152 47/16/152 96/113/152
f 7/41/86 88/101/86 112/92/86
f 48/11/153 97/95/153 98/109/153
f 61/34/154 101/93/154 115/115/154
