# Blender v2.78 (sub 0) OBJ File: ''
# www.blender.org
o column_v2_Cube
v 1.086958 1.567191 -0.913040
v 0.936484 1.369960 -0.913040
v 1.086958 1.357354 -0.913040
v 1.115073 0.210133 -0.884925
v 0.929805 0.439717 -0.913040
v 0.884790 0.207295 -0.884790
v 1.086958 0.414246 -1.081319
v 1.115209 0.207295 -1.115209
v 1.086958 1.395894 -1.086169
v 0.884790 0.207295 -1.115209
v 0.926723 1.564563 -1.073275
v 0.922245 1.386261 -1.077753
v 0.922244 0.422407 -1.077754
v 1.115018 1.785940 -0.884980
v 0.919082 1.582057 -0.913040
v 1.086958 1.565932 -1.073873
v 1.115209 1.789930 -1.115209
v 0.884790 1.789930 -1.115209
v 0.848554 1.987234 -0.898792
v 0.848554 1.802696 -1.062299
v 0.848554 1.802696 -0.898792
v 0.884790 1.789930 -0.884790
v 0.884790 2.000000 -0.884790
v 0.848554 1.987234 -1.101206
v 0.884790 2.000000 -1.115209
v 0.914605 1.802696 -1.151444
v 1.101206 1.964701 -1.151444
v 1.101206 1.817873 -1.151444
v 0.898792 1.987234 -1.151444
v 1.115209 2.000000 -1.115209
v 1.151444 1.959749 -1.084997
v 1.151217 1.800560 -0.925564
v 1.151444 1.802696 -1.101206
v 1.115209 2.000000 -0.884790
v 1.151444 1.987234 -0.898792
v 1.101206 1.966469 -0.848554
v 0.924928 1.821445 -0.842625
v 1.081018 1.799459 -0.848899
v 0.898792 1.945327 -0.848554
v 0.865031 0.183425 -0.951401
v 0.865031 0.023870 -1.024296
v 0.865031 0.023870 -0.911323
v 0.884790 0.000000 -0.884790
v 0.884790 0.000000 -1.115209
v 0.865031 0.183425 -1.088675
v 0.911323 0.147167 -1.134967
v 1.069481 0.058189 -1.154794
v 0.911323 0.023870 -1.134967
v 1.088676 0.183425 -1.134967
v 1.115209 0.000000 -1.115209
v 1.134967 0.155523 -1.088675
v 1.134967 0.023870 -0.942403
v 1.134967 0.023870 -1.088675
v 1.134946 0.183693 -0.911324
v 1.115209 0.000000 -0.884790
v 1.057395 0.023870 -0.865031
v 0.911323 0.162216 -0.865031
v 0.911323 0.023870 -0.865031
v 1.088676 0.139424 -0.865031
v 0.915847 0.603640 -1.084152
v 0.944733 0.799520 -0.913040
v 0.940090 0.631392 -0.913040
v 0.913040 0.998612 -0.943987
v 0.913040 0.840167 -1.086958
v 0.913040 1.157522 -1.086958
v 0.913040 0.998612 -1.086958
v 0.942858 1.197705 -0.913040
v 1.086958 0.601175 -1.086305
v 1.086958 0.799520 -1.057579
v 1.051865 0.998612 -1.086958
v 1.086958 1.197705 -1.079103
v 1.086958 0.436577 -0.913040
v 1.086958 0.641481 -0.913040
v 1.086958 0.974112 -0.913040
v 1.086958 0.799520 -0.913040
v 1.086958 1.197705 -0.913040
vt 0.3783 0.7843
vt 0.2965 0.6892
vt 0.3723 0.6802
vt 0.4184 0.1157
vt 0.3044 0.2133
vt 0.3150 0.1000
vt 0.1243 0.2028
vt 0.0107 0.1087
vt 0.1168 0.0960
vt 0.1280 0.7004
vt 0.0360 0.7833
vt 0.0417 0.6771
vt 0.2184 0.0934
vt 0.2097 0.7918
vt 0.2116 0.6957
vt 0.2144 0.2031
vt 0.4025 0.8918
vt 0.2947 0.7980
vt 0.1220 0.7894
vt 0.0049 0.8909
vt 0.1066 0.9023
vt 0.2043 0.9065
vt 0.2903 0.9773
vt 0.2311 0.9179
vt 0.2863 0.9166
vt 0.3025 0.8996
vt 0.3046 0.9927
vt 0.2215 0.9823
vt 0.2085 0.9965
vt 0.1857 0.9189
vt 0.1200 0.9767
vt 0.1227 0.9223
vt 0.1940 0.9825
vt 0.1052 0.9999
vt 0.0876 0.9765
vt 0.0282 0.9077
vt 0.0896 0.9165
vt 0.0001 0.9878
vt 0.0158 0.9725
vt 0.3915 0.9671
vt 0.3268 0.9180
vt 0.3826 0.9102
vt 0.4074 0.9855
vt 0.3183 0.9641
vt 0.2868 0.0853
vt 0.2593 0.0173
vt 0.3075 0.0217
vt 0.3227 0.0090
vt 0.2169 0.0001
vt 0.2320 0.0813
vt 0.2038 0.0663
vt 0.1362 0.0294
vt 0.2023 0.0145
vt 0.1306 0.0825
vt 0.1088 0.0006
vt 0.1002 0.0724
vt 0.0303 0.0202
vt 0.0948 0.0159
vt 0.0240 0.0923
vt 0.0001 0.0081
vt 0.3983 0.0283
vt 0.3307 0.0810
vt 0.3362 0.0239
vt 0.4066 0.0802
vt 0.4275 0.0168
vt 0.2134 0.3005
vt 0.3011 0.4009
vt 0.3019 0.3151
vt 0.2823 0.5015
vt 0.2114 0.4210
vt 0.2116 0.5800
vt 0.2108 0.5011
vt 0.2987 0.6020
vt 0.1283 0.2970
vt 0.1221 0.3979
vt 0.1397 0.5016
vt 0.1275 0.6026
vt 0.0382 0.2205
vt 0.0443 0.3224
vt 0.0505 0.4875
vt 0.0487 0.4008
vt 0.0460 0.5976
vt 0.3849 0.2223
vt 0.3762 0.3247
vt 0.3701 0.4902
vt 0.3726 0.4035
vt 0.3707 0.6010
vn -0.0000 0.0000 1.0000
vn 0.0022 0.1231 0.9924
vn 0.0008 0.1222 0.9925
vn -0.0009 0.1208 0.9927
vn 0.9908 0.1354 -0.0011
vn 1.0000 0.0000 0.0000
vn 0.0000 0.1616 -0.9869
vn -0.0525 0.0264 -0.9983
vn -0.9852 0.1715 0.0000
vn -0.9958 0.0228 0.0883
vn -0.0104 -0.1262 0.9920
vn -0.0063 -0.1304 0.9914
vn -0.0111 -0.1258 0.9920
vn 0.9920 -0.1264 -0.0002
vn 0.9919 -0.1273 0.0006
vn 0.9919 -0.1274 0.0010
vn -0.0011 -0.1821 -0.9833
vn -0.0018 -0.1814 -0.9834
vn -0.0021 -0.1812 -0.9834
vn -0.9819 -0.1876 -0.0263
vn -1.0000 0.0000 0.0000
vn -0.3604 0.0000 0.9328
vn -0.3323 0.9432 0.0000
vn -0.3605 0.0000 -0.9328
vn -0.3323 -0.9432 -0.0000
vn 0.0000 0.0000 -1.0000
vn -0.9328 -0.0000 -0.3604
vn 0.0000 0.9432 -0.3323
vn 0.9328 0.0000 -0.3605
vn 0.0000 -0.9432 -0.3323
vn 1.0000 -0.0007 0.0007
vn 1.0000 -0.0001 0.0013
vn 0.6404 0.0000 -0.7681
vn 0.7432 0.6691 0.0000
vn 0.3601 -0.0011 0.9329
vn 0.3591 -0.9332 -0.0159
vn 0.0392 -0.0068 0.9992
vn 0.9331 -0.0012 0.3595
vn 0.0000 0.7340 0.6792
vn -0.9328 0.0000 0.3604
vn -0.0133 -0.7948 0.6067
vn -0.8020 0.0000 0.5973
vn -0.7703 0.6377 0.0000
vn -0.8020 0.0000 -0.5973
vn -0.7703 -0.6377 -0.0000
vn -0.1244 0.0000 -0.9922
vn -0.5973 0.0000 -0.8021
vn 0.0000 0.6376 -0.7703
vn 0.6545 0.0000 -0.7561
vn 0.0000 -0.5625 -0.8268
vn 1.0000 0.0001 0.0001
vn 0.8021 0.0000 -0.5972
vn 0.7960 0.6053 -0.0070
vn 0.7994 0.0009 0.6008
vn 0.7703 -0.6376 -0.0000
vn 0.6003 0.0009 0.7998
vn -0.0044 0.3993 0.9168
vn -0.5973 -0.0000 0.8020
vn 0.0000 -0.6377 0.7703
vn -0.9982 -0.0335 0.0493
vn -0.9903 0.0273 0.1359
vn -0.9801 -0.1331 0.1475
vn -0.9863 0.0332 0.1614
vn -0.0133 -0.0353 -0.9993
vn -0.0225 -0.0268 -0.9994
vn -0.0230 -0.0267 -0.9994
vn -0.0104 0.1433 -0.9896
vn 0.1378 -0.1208 -0.9831
vn 0.0362 0.0387 -0.9986
vn 0.0363 0.0386 -0.9986
vn 0.0375 0.0331 -0.9987
vn 0.9802 0.0000 -0.1978
vn -0.1906 -0.1228 0.9739
vn 0.0025 0.1235 0.9923
vn 0.9925 0.1212 -0.0161
vn -0.0127 0.1737 -0.9847
vn -0.0043 0.0721 -0.9974
vn -0.9809 0.1930 0.0247
vn -0.9959 -0.0817 -0.0386
vn -0.0015 -0.1349 0.9909
vn 0.9921 -0.1254 -0.0013
vn 0.0000 -0.1829 -0.9831
vn -0.9867 -0.1628 0.0000
vn -0.8323 -0.1144 -0.5424
vn -0.7592 -0.0651 -0.6476
vn 0.0778 0.6989 -0.7109
vn 0.0633 -0.7783 -0.6247
vn 1.0000 -0.0012 0.0002
vn 0.3289 0.0970 -0.9394
vn 0.2804 0.9496 -0.1402
vn 0.7595 -0.0933 0.6438
vn 0.3361 -0.9418 -0.0110
vn -0.0049 0.0468 0.9989
vn 0.7085 -0.0871 0.7003
vn -0.0566 0.5415 0.8388
vn -0.6783 -0.1083 0.7267
vn -0.1258 -0.9621 0.2420
vn -0.9628 0.0658 0.2620
vn -0.9783 -0.0776 -0.1922
vn -0.0330 0.1612 -0.9864
vn -0.0589 0.2881 -0.9558
vn 0.5722 0.0420 -0.8191
vn 0.0529 -0.6710 -0.7396
vn 0.9417 0.3324 -0.0527
vn 0.9515 -0.0586 0.3020
vn 0.2929 -0.0793 0.9528
vn 0.0333 0.2591 0.9653
vn -0.9899 0.0531 0.1316
vn -0.9841 -0.0096 0.1771
vn -0.9823 0.1254 0.1394
vn -0.9959 -0.0369 0.0824
vn -0.0131 -0.0357 -0.9993
vn 0.1643 -0.0098 -0.9864
vn 0.0375 0.0328 -0.9988
vn -0.0489 -0.0356 -0.9982
vn 0.9736 0.1456 -0.1759
vn 0.9848 -0.1736 0.0000
vn -0.1563 0.1274 0.9795
s 1
f 1/1/1 2/2/1 3/3/1
f 4/4/2 5/5/3 6/6/4
f 7/7/5 4/8/5 8/9/5
f 9/10/6 1/11/6 3/12/6
f 10/13/7 7/7/7 8/9/7
f 11/14/8 9/10/8 12/15/8
f 6/6/9 13/16/9 10/13/9
f 2/2/10 11/14/10 12/15/10
f 14/17/11 15/18/12 1/1/13
f 16/19/14 14/20/15 1/11/16
f 11/14/17 17/21/18 16/19/19
f 15/18/20 18/22/20 11/14/20
f 19/23/21 20/24/21 21/25/21
f 19/23/22 22/26/22 23/27/22
f 24/28/23 23/27/23 25/29/23
f 18/22/24 24/28/24 25/29/24
f 22/26/25 20/24/25 18/22/25
f 26/30/26 27/31/26 28/32/26
f 29/33/27 18/22/27 25/29/27
f 30/34/28 29/33/28 25/29/28
f 17/21/29 27/31/29 30/34/29
f 26/30/30 17/21/30 18/22/30
f 31/35/31 32/36/31 33/37/32
f 31/35/33 17/21/33 30/34/33
f 34/38/34 31/35/34 30/34/34
f 14/20/35 35/39/35 34/38/35
f 17/21/36 32/36/36 14/20/36
f 36/40/37 37/41/37 38/42/37
f 36/40/38 14/17/38 34/43/38
f 23/27/39 36/40/39 34/43/39
f 22/26/40 39/44/40 23/27/40
f 14/17/41 37/41/41 22/26/41
f 40/45/21 41/46/21 42/47/21
f 6/6/42 42/47/42 43/48/42
f 10/13/43 40/45/43 6/6/43
f 44/49/44 45/50/44 10/13/44
f 43/48/45 41/46/45 44/49/45
f 46/51/46 47/52/46 48/53/46
f 46/51/47 44/49/47 10/13/47
f 49/54/48 10/13/48 8/9/48
f 47/52/49 8/9/49 50/55/49
f 44/49/50 47/52/50 50/55/50
f 51/56/51 52/57/51 53/58/6
f 51/56/52 50/55/52 8/9/52
f 54/59/53 8/9/53 4/8/53
f 55/60/54 54/59/54 4/8/54
f 50/55/55 52/57/55 55/60/55
f 56/61/1 57/62/1 58/63/1
f 59/64/56 55/65/56 4/4/56
f 57/62/57 4/4/57 6/6/57
f 43/48/58 57/62/58 6/6/58
f 56/61/59 43/48/59 55/65/59
f 5/5/60 60/66/60 13/16/60
f 61/67/61 60/66/61 62/68/61
f 63/69/62 64/70/62 61/67/62
f 63/69/21 65/71/21 66/72/21
f 67/73/63 12/15/63 65/71/63
f 13/16/64 68/74/65 7/7/66
f 60/66/67 69/75/67 68/74/67
f 64/70/68 70/76/68 69/75/68
f 65/71/26 70/76/26 66/72/26
f 12/15/69 71/77/70 65/71/71
f 68/74/6 72/78/6 7/7/6
f 69/75/6 73/79/6 68/74/6
f 69/75/6 74/80/6 75/81/6
f 70/76/72 76/82/72 74/80/72
f 71/77/6 3/12/6 76/82/6
f 72/83/1 62/68/1 5/5/1
f 73/84/1 61/67/1 62/68/1
f 74/85/1 61/67/1 75/86/1
f 74/85/73 67/73/73 63/69/73
f 3/3/1 67/73/1 76/87/1
f 1/1/1 15/18/1 2/2/1
f 4/4/2 72/83/74 5/5/3
f 7/7/75 72/78/75 4/8/75
f 9/10/6 16/19/6 1/11/6
f 10/13/76 13/16/76 7/7/76
f 11/14/77 16/19/77 9/10/77
f 6/6/78 5/5/78 13/16/78
f 2/2/79 15/18/79 11/14/79
f 14/17/11 22/26/80 15/18/12
f 16/19/14 17/21/81 14/20/15
f 11/14/17 18/22/82 17/21/18
f 15/18/83 22/26/83 18/22/83
f 19/23/21 24/28/21 20/24/21
f 19/23/22 21/25/22 22/26/22
f 24/28/23 19/23/23 23/27/23
f 18/22/84 20/24/84 24/28/84
f 22/26/25 21/25/25 20/24/25
f 26/30/26 29/33/26 27/31/26
f 29/33/85 26/30/85 18/22/85
f 30/34/86 27/31/86 29/33/86
f 17/21/29 28/32/29 27/31/29
f 26/30/87 28/32/87 17/21/87
f 31/35/31 35/39/88 32/36/31
f 31/35/89 33/37/89 17/21/89
f 34/38/90 35/39/90 31/35/90
f 14/20/91 32/36/91 35/39/91
f 17/21/92 33/37/92 32/36/92
f 36/40/93 39/44/93 37/41/93
f 36/40/94 38/42/94 14/17/94
f 23/27/95 39/44/95 36/40/95
f 22/26/96 37/41/96 39/44/96
f 14/17/97 38/42/97 37/41/97
f 40/45/21 45/50/21 41/46/21
f 6/6/98 40/45/98 42/47/98
f 10/13/43 45/50/43 40/45/43
f 44/49/99 41/46/99 45/50/99
f 43/48/45 42/47/45 41/46/45
f 46/51/100 49/54/100 47/52/100
f 46/51/47 48/53/47 44/49/47
f 49/54/101 46/51/101 10/13/101
f 47/52/102 49/54/102 8/9/102
f 44/49/103 48/53/103 47/52/103
f 51/56/51 54/59/51 52/57/51
f 51/56/52 53/58/52 50/55/52
f 54/59/104 51/56/104 8/9/104
f 55/60/105 52/57/105 54/59/105
f 50/55/55 53/58/55 52/57/55
f 56/61/1 59/64/1 57/62/1
f 59/64/106 56/61/106 55/65/106
f 57/62/107 59/64/107 4/4/107
f 43/48/58 58/63/58 57/62/58
f 56/61/59 58/63/59 43/48/59
f 5/5/108 62/68/108 60/66/108
f 61/67/109 64/70/109 60/66/109
f 63/69/21 66/72/21 64/70/21
f 63/69/110 67/73/110 65/71/110
f 67/73/111 2/2/111 12/15/111
f 13/16/64 60/66/112 68/74/65
f 60/66/113 64/70/113 69/75/113
f 64/70/26 66/72/26 70/76/26
f 65/71/71 71/77/70 70/76/114
f 12/15/115 9/10/115 71/77/115
f 68/74/6 73/79/6 72/78/6
f 69/75/6 75/81/6 73/79/6
f 69/75/116 70/76/116 74/80/116
f 70/76/117 71/77/117 76/82/117
f 71/77/6 9/10/6 3/12/6
f 72/83/1 73/84/1 62/68/1
f 73/84/1 75/86/1 61/67/1
f 74/85/118 63/69/118 61/67/118
f 74/85/1 76/87/1 67/73/1
f 3/3/1 2/2/1 67/73/1
