# Blender v2.79 (sub 0) OBJ File: 'props.blend'
# www.blender.org
mtllib prop_v2_4.mtl
o prop_v2_4_Plane.002
v -0.472401 0.055667 -0.489342
v -0.347005 0.027911 -0.475104
v -0.484438 0.063971 -0.587994
v -0.378372 0.040995 -0.584606
v -0.430602 0.053405 -0.605173
v -0.344701 0.030557 -0.529280
v -0.471934 0.070677 -0.581456
v -0.461586 0.063538 -0.496648
v -0.353788 0.039677 -0.484409
v -0.351808 0.041952 -0.530982
v -0.380753 0.050925 -0.578543
v -0.425654 0.061593 -0.596224
v -0.486647 0.053686 -0.588590
v -0.474610 0.045382 -0.489938
v -0.349214 0.017626 -0.475701
v -0.346910 0.020271 -0.529877
v -0.380581 0.030710 -0.585202
v -0.432811 0.043120 -0.605769
vt 0.357020 0.677287
vt 0.514686 0.534159
vt 0.403948 0.680973
vt 0.289510 0.130533
vt 0.430972 0.285785
vt 0.071955 0.484457
vt 0.494420 0.495421
vt 0.343541 0.616048
vt 0.447879 0.468960
vt 0.017818 0.517042
vt 0.122158 0.101551
vt 0.476424 0.266260
vt 0.298631 0.075838
vt 0.083228 0.047640
vt 0.708526 0.508826
vt 0.587587 0.883503
vt 0.573006 0.928536
vt 0.916443 0.808732
vt 0.959713 0.829945
vt 0.927553 0.612480
vt 0.718019 0.469838
vt 0.890874 0.636880
vn -0.2813 0.1156 -0.9526
vn 0.2096 0.9761 0.0566
vn -0.0613 0.7530 -0.6551
vn 0.0541 0.6384 0.7678
vn 0.4161 0.5445 -0.7283
vn 0.8017 0.4395 -0.4050
vn -0.5220 0.8422 0.1346
vn 0.8427 0.5348 0.0620
vn -0.2096 -0.9761 -0.0566
vn -0.1197 -0.0318 0.9923
vn 0.3614 -0.0236 -0.9321
vn 0.8322 -0.1478 -0.5344
vn -0.9703 0.2006 0.1353
vn 0.9769 -0.2116 0.0312
vn -0.9703 0.2005 0.1353
usemtl None
s off
f 3/1/1 18/2/1 13/3/1
f 10/4/2 11/5/2 8/6/2
f 5/7/3 7/8/3 12/9/3
f 1/10/4 9/11/4 8/6/4
f 4/12/5 12/9/5 11/5/5
f 4/12/6 10/4/6 6/13/6
f 1/10/7 7/8/7 3/1/7
f 6/13/8 9/11/8 2/14/8
f 18/2/9 17/15/9 14/16/9
f 1/17/10 15/18/10 2/19/10
f 5/7/11 17/15/11 18/2/11
f 6/20/12 17/15/12 4/21/12
f 1/17/13 13/3/13 14/16/13
f 2/19/14 16/22/14 6/20/14
f 3/1/1 5/7/1 18/2/1
f 7/8/2 8/6/2 12/9/2
f 9/11/2 10/4/2 8/6/2
f 11/5/2 12/9/2 8/6/2
f 5/7/3 3/1/3 7/8/3
f 1/10/4 2/14/4 9/11/4
f 4/12/5 5/7/5 12/9/5
f 4/12/6 11/5/6 10/4/6
f 1/10/7 8/6/7 7/8/7
f 6/13/8 10/4/8 9/11/8
f 15/18/9 14/16/9 16/22/9
f 13/3/9 18/2/9 14/16/9
f 17/15/9 16/22/9 14/16/9
f 1/17/10 14/16/10 15/18/10
f 5/7/11 4/21/11 17/15/11
f 6/20/12 16/22/12 17/15/12
f 1/17/15 3/1/15 13/3/15
f 2/19/14 15/18/14 16/22/14
