# Blender v2.79 (sub 0) OBJ File: 'props.blend'
# www.blender.org
mtllib prop_v2_1.mtl
o prop_v2_1_Icosphere
v -0.931303 0.012380 -0.698929
v -0.820394 0.076769 -0.673008
v -0.913272 0.114625 -0.658228
v -0.985281 0.063396 -0.748177
v -0.945911 -0.009349 -0.815667
v -0.895463 0.009211 -0.779920
v -0.819783 0.167816 -0.706724
v -0.937951 0.149815 -0.744288
v -0.933536 0.089794 -0.856810
v -0.821086 0.046868 -0.866425
v -0.754861 0.098279 -0.776760
v -0.840796 0.128384 -0.806851
v -0.918482 0.060892 -0.665221
v -0.870299 0.039698 -0.674568
v -0.867665 0.101028 -0.653168
v -0.838662 0.032825 -0.716490
v -0.933810 0.002683 -0.738832
v -0.956581 0.030003 -0.716068
v -0.957306 0.089053 -0.692577
v -0.958408 -0.008248 -0.759265
v -0.971782 0.019031 -0.785303
v -0.941133 -0.010006 -0.806296
v -0.768062 0.080964 -0.711626
v -0.799097 0.044122 -0.775435
v -0.873844 0.148847 -0.668186
v -0.811592 0.123689 -0.673519
v -0.967959 0.114005 -0.746660
v -0.937743 0.144629 -0.695713
v -0.939717 0.032882 -0.846806
v -0.961728 0.076062 -0.808720
v -0.850335 0.015377 -0.828559
v -0.879521 0.003860 -0.848526
v -0.773913 0.143676 -0.740714
v -0.885435 0.170517 -0.719187
v -0.937530 0.125857 -0.806304
v -0.887489 0.061658 -0.873009
v -0.774302 0.070774 -0.830450
v -0.832233 0.153330 -0.750949
v -0.797978 0.124704 -0.802557
v -0.891974 0.146733 -0.776148
v -0.895666 0.123064 -0.851888
v -0.823606 0.099132 -0.858192
vt 0.610850 0.750582
vt 0.612120 0.860291
vt 0.558385 0.842335
vt 0.044566 0.246116
vt 0.090399 0.148188
vt 0.130074 0.229548
vt 0.569442 0.711671
vt 0.612120 0.621859
vt 0.168322 0.058341
vt 0.271223 0.056162
vt 0.225962 0.083190
vt 0.063544 0.363284
vt 0.727153 0.547441
vt 0.769064 0.575873
vt 0.701251 0.616232
vt 0.501676 0.656306
vt 0.493092 0.781658
vt 0.442502 0.704762
vt 0.917658 0.325220
vt 0.868806 0.357293
vt 0.867497 0.251908
vt 0.255163 0.182092
vt 0.323630 0.122568
vt 0.290531 0.297842
vt 0.829507 0.639295
vt 0.855261 0.750159
vt 0.769029 0.670821
vt 0.716491 0.362495
vt 0.653547 0.413698
vt 0.691338 0.299129
vt 0.716491 0.128475
vt 0.681306 0.178116
vt 0.625987 0.080869
vt 0.955434 0.193828
vt 0.179957 0.348524
vt 0.552435 0.435118
vt 0.480658 0.429870
vt 0.525239 0.352757
vt 0.639862 0.235833
vt 0.604770 0.342637
vt 0.562131 0.244941
vt 0.543147 0.056162
vt 0.585107 0.139360
vt 0.497364 0.125194
vt 0.044566 0.711339
vt 0.097850 0.607437
vt 0.118898 0.734962
vt 0.108450 0.921116
vt 0.063748 0.828062
vt 0.158342 0.838794
vt 0.448840 0.307583
vt 0.427463 0.188321
vt 0.486164 0.253497
vt 0.191868 0.638336
vt 0.184820 0.769569
vt 0.165853 0.562414
vt 0.191868 0.943838
vt 0.226731 0.450090
vt 0.134028 0.450090
vt 0.310334 0.394374
vt 0.876092 0.130468
vt 0.955434 0.056162
vt 0.805622 0.180458
vt 0.768581 0.819736
vt 0.707395 0.735670
vt 0.845601 0.871642
vt 0.338037 0.262932
vt 0.338332 0.123598
vt 0.807108 0.270071
vt 0.814628 0.361574
vt 0.427463 0.828107
vt 0.489325 0.889699
vt 0.562371 0.586264
vt 0.609429 0.547441
vt 0.534106 0.931586
vt 0.855261 0.577139
vn -0.0829 -0.5538 0.8285
vn 0.5070 -0.7035 0.4980
vn -0.6690 -0.2967 0.6815
vn -0.6971 -0.5219 0.4916
vn 0.2421 -0.9462 0.2147
vn 0.4511 -0.7155 0.5335
vn -0.0172 0.2976 0.9545
vn -0.9007 0.2988 0.3153
vn -0.8379 -0.2389 -0.4907
vn 0.3022 -0.9395 0.1613
vn 0.5959 -0.1031 0.7964
vn -0.3476 0.6081 0.7137
vn -0.9042 0.3180 -0.2852
vn -0.2838 -0.5418 -0.7912
vn 0.3270 -0.9265 0.1860
vn 0.2133 0.9091 -0.3578
vn -0.1882 0.9138 -0.3600
vn -0.5236 0.6732 -0.5221
vn 0.1327 0.1605 -0.9781
vn 0.6504 0.5542 -0.5194
vn 0.1218 0.8794 -0.4603
vn 0.6269 0.5570 -0.5448
vn 0.5509 0.1557 -0.8199
vn 0.2543 0.8745 -0.4131
vn 0.0264 0.3283 -0.9442
vn -0.1451 0.3045 -0.9414
vn 0.1563 0.9406 -0.3015
vn -0.2415 0.9295 -0.2787
vn -0.1847 0.9163 -0.3553
vn 0.0754 0.9063 -0.4159
vn 0.0634 0.9183 -0.3907
vn 0.1022 0.9365 -0.3355
vn 0.1194 0.8997 -0.4198
vn 0.2137 0.9075 -0.3616
vn 0.6459 0.6222 -0.4423
vn 0.7743 -0.6314 0.0431
vn 0.5821 -0.8032 -0.1268
vn 0.5713 -0.7915 -0.2170
vn 0.0046 -0.3895 -0.9210
vn -0.2211 -0.4061 -0.8867
vn -0.3928 -0.1177 -0.9121
vn -0.8298 0.4210 -0.3662
vn -0.8381 0.4239 -0.3433
vn -0.7341 0.6317 -0.2490
vn -0.4054 0.9088 0.0988
vn -0.2408 0.8724 0.4254
vn -0.0379 0.9166 0.3981
vn 0.6678 0.5227 0.5299
vn 0.7823 0.3207 0.5340
vn 0.9479 0.2025 0.2459
vn 0.5120 -0.8121 -0.2799
vn 0.2940 -0.9486 0.1174
vn 0.1289 -0.9825 -0.1345
vn -0.8633 0.0051 -0.5047
vn -0.8827 -0.0367 -0.4685
vn -0.9330 0.0169 -0.3594
vn -0.7668 0.6379 0.0714
vn -0.8856 0.3302 0.3267
vn -0.6862 0.2794 0.6716
vn 0.3083 0.6079 0.7317
vn 0.2075 0.3174 0.9253
vn 0.3611 -0.0576 0.9308
vn 0.7743 -0.6327 -0.0113
vn 0.5413 -0.8149 0.2072
vn 0.3383 -0.9399 0.0470
vn 0.3127 -0.9391 0.1427
vn 0.2987 -0.9433 0.1450
vn -0.1216 -0.9926 -0.0076
vn -0.8116 -0.5592 -0.1689
vn -0.9423 -0.2298 0.2433
vn -0.8416 -0.4735 0.2598
vn -0.8287 -0.2156 0.5165
vn -0.6799 -0.2782 0.6785
vn -0.5976 -0.0462 0.8005
vn 0.2773 -0.9548 0.1071
vn 0.2183 -0.9233 0.3161
vn 0.3315 -0.9213 0.2031
vn -0.1431 -0.1141 0.9831
vn 0.0375 -0.3307 0.9430
vn 0.2164 -0.3299 0.9189
usemtl prop_v2_1_material
s off
f 1/1/1 14/2/1 13/3/1
f 2/4/2 14/5/2 16/6/2
f 1/1/3 13/3/3 18/7/3
f 1/1/4 18/7/4 20/8/4
f 1/9/5 20/10/5 17/11/5
f 2/4/6 16/6/6 23/12/6
f 3/13/7 15/14/7 25/15/7
f 4/16/8 19/17/8 27/18/8
f 5/19/9 21/20/9 29/21/9
f 6/22/10 22/23/10 31/24/10
f 2/25/11 23/26/11 26/27/11
f 3/28/12 25/29/12 28/30/12
f 4/31/13 27/32/13 30/33/13
f 5/19/14 29/21/14 32/34/14
f 6/22/15 31/24/15 24/35/15
f 7/36/16 33/37/16 38/38/16
f 8/39/17 34/40/17 40/41/17
f 9/42/18 35/43/18 41/44/18
f 10/45/19 36/46/19 42/47/19
f 11/48/20 37/49/20 39/50/20
f 39/51/21 42/52/21 12/53/21
f 39/50/22 37/49/22 42/47/22
f 37/49/23 10/45/23 42/47/23
f 42/47/24 41/54/24 12/55/24
f 42/47/25 36/46/25 41/54/25
f 36/46/26 9/56/26 41/54/26
f 41/44/27 40/41/27 12/53/27
f 41/44/28 35/43/28 40/41/28
f 35/43/29 8/39/29 40/41/29
f 40/41/30 38/38/30 12/53/30
f 40/41/31 34/40/31 38/38/31
f 34/40/32 7/36/32 38/38/32
f 38/38/33 39/51/33 12/53/33
f 38/38/34 33/37/34 39/51/34
f 33/57/35 11/48/35 39/50/35
f 24/35/36 37/58/36 11/59/36
f 24/35/37 31/24/37 37/58/37
f 31/24/38 10/60/38 37/58/38
f 32/34/39 36/61/39 10/62/39
f 32/34/40 29/21/40 36/61/40
f 29/21/41 9/63/41 36/61/41
f 30/33/42 35/43/42 9/42/42
f 30/33/43 27/32/43 35/43/43
f 27/32/44 8/39/44 35/43/44
f 28/30/45 34/40/45 8/39/45
f 28/30/46 25/29/46 34/40/46
f 25/29/47 7/36/47 34/40/47
f 26/27/48 33/64/48 7/65/48
f 26/27/49 23/26/49 33/64/49
f 23/26/50 11/66/50 33/64/50
f 31/24/51 32/67/51 10/60/51
f 31/24/52 22/23/52 32/67/52
f 22/23/53 5/68/53 32/67/53
f 29/21/54 30/69/54 9/63/54
f 29/21/55 21/20/55 30/69/55
f 21/20/56 4/70/56 30/69/56
f 27/32/57 28/30/57 8/39/57
f 27/18/58 19/17/58 28/71/58
f 19/17/59 3/72/59 28/71/59
f 25/15/60 26/27/60 7/65/60
f 25/15/61 15/14/61 26/27/61
f 15/14/62 2/25/62 26/27/62
f 23/12/63 24/35/63 11/59/63
f 23/12/64 16/6/64 24/35/64
f 16/6/65 6/22/65 24/35/65
f 17/11/66 22/23/66 6/22/66
f 17/11/67 20/10/67 22/23/67
f 20/10/68 5/68/68 22/23/68
f 20/8/69 21/73/69 5/74/69
f 20/8/70 18/7/70 21/73/70
f 18/7/71 4/16/71 21/73/71
f 18/7/72 19/17/72 4/16/72
f 18/7/73 13/3/73 19/17/73
f 13/3/74 3/72/74 19/17/74
f 16/6/75 17/11/75 6/22/75
f 16/6/76 14/5/76 17/11/76
f 14/5/77 1/9/77 17/11/77
f 13/3/78 15/75/78 3/72/78
f 13/3/79 14/2/79 15/75/79
f 14/76/80 2/25/80 15/14/80
