# Blender v2.79 (sub 0) OBJ File: 'props.blend'
# www.blender.org
mtllib prop_v2_10.mtl
o prop_v2_10_Plane.006
v -0.698123 0.028931 -0.349492
v -0.633207 0.033672 -0.331724
v -0.712687 0.030252 -0.427274
v -0.609011 0.062336 -0.449339
v -0.660603 0.047491 -0.463851
v -0.574555 0.042100 -0.368560
v -0.705088 0.042235 -0.420735
v -0.692569 0.041099 -0.356799
v -0.644895 0.040589 -0.341028
v -0.586343 0.048535 -0.370262
v -0.615963 0.069816 -0.443276
v -0.660314 0.057055 -0.454902
v -0.709559 0.020208 -0.427870
v -0.694995 0.018887 -0.350088
v -0.630079 0.023627 -0.332320
v -0.571427 0.032056 -0.369156
v -0.605883 0.052292 -0.449936
v -0.657475 0.037447 -0.464447
vt 0.183565 0.528444
vt 0.058086 0.715832
vt 0.018096 0.708667
vt 0.394452 0.071428
vt 0.213960 0.482530
vt 0.081957 0.306927
vt 0.161744 0.028709
vt 0.194323 0.089213
vt 0.410156 0.533128
vt 0.388851 0.486772
vt 0.501645 0.787584
vt 0.464816 0.781709
vt 0.018097 0.317277
vt 0.453509 0.030619
vt 0.611272 0.261710
vt 0.202870 0.569098
vt 0.386475 0.575980
vt 0.370344 0.928344
vt 0.389135 0.970860
vt 0.158933 0.935351
vt 0.128836 0.971291
vt 0.437139 0.780131
vn -0.5437 -0.1200 -0.8307
vn -0.1934 0.9670 0.1660
vn -0.6143 0.5490 -0.5668
vn -0.2503 0.5798 0.7754
vn 0.0175 0.6394 -0.7687
vn 0.4773 0.8786 0.0165
vn -0.8716 0.4594 0.1710
vn 0.1252 0.8650 0.4859
vn 0.3149 -0.9350 -0.1631
vn -0.2524 -0.1355 0.9581
vn 0.2336 0.1300 -0.9636
vn 0.9024 0.2994 -0.3099
vn -0.9379 -0.3022 0.1705
vn 0.5171 0.1107 0.8487
vn 0.0052 0.9998 0.0167
vn 0.0078 0.9609 0.2769
vn -0.3148 0.9324 0.1775
vn -0.5716 0.6416 -0.5115
vn -0.2519 0.5979 0.7610
vn 0.0088 0.6831 -0.7303
vn 0.6988 0.7112 -0.0762
vn -0.8515 0.4941 0.1755
vn 0.2971 0.7123 0.6360
vn 0.1063 -0.9864 -0.1252
vn 0.2708 -0.9603 -0.0670
vn -0.0104 -0.9710 -0.2388
usemtl prop_v2_10_material
s off
f 5/1/1 13/2/1 3/3/1
f 9/4/2 12/5/2 7/6/2
f 5/1/3 7/6/3 12/5/3
f 1/7/4 9/4/4 8/8/4
f 4/9/5 12/5/5 11/10/5
f 4/9/6 10/11/6 6/12/6
f 1/7/7 7/6/7 3/13/7
f 2/14/8 10/15/8 9/4/8
f 18/16/9 17/17/9 15/18/9
f 2/19/10 14/20/10 15/18/10
f 4/9/11 18/16/11 5/1/11
f 6/12/12 17/17/12 4/9/12
f 1/21/13 13/2/13 14/20/13
f 6/12/14 15/18/14 16/22/14
f 5/1/1 18/16/1 13/2/1
f 7/6/15 8/8/15 9/4/15
f 9/4/16 10/15/16 11/10/16
f 11/10/17 12/5/17 9/4/17
f 5/1/18 3/13/18 7/6/18
f 1/7/19 2/14/19 9/4/19
f 4/9/20 5/1/20 12/5/20
f 4/9/21 11/10/21 10/15/21
f 1/7/22 8/8/22 7/6/22
f 2/19/23 6/12/23 10/11/23
f 15/18/24 14/20/24 18/16/24
f 13/2/25 18/16/25 14/20/25
f 17/17/26 16/22/26 15/18/26
f 2/19/10 1/21/10 14/20/10
f 4/9/11 17/17/11 18/16/11
f 6/12/12 16/22/12 17/17/12
f 1/21/13 3/3/13 13/2/13
f 6/12/14 2/19/14 15/18/14
