# Blender v2.78 (sub 0) OBJ File: 'Schwaert.blend'
# www.blender.org
mtllib Schwaert.mtl
o Cube_Cube.001
v 0.192322 -0.080317 -0.067781
v 0.192322 0.080317 -0.067781
v 0.453063 -0.019551 -0.437301
v 0.453063 -0.019551 -0.512528
v 0.100000 -0.100000 0.886907
v 0.100000 0.100000 0.886907
v 0.100000 -0.100000 0.013120
v 0.100000 0.100000 0.013120
v 0.453063 0.019551 -0.512528
v 0.453063 0.019551 -0.437301
v 0.100000 -0.100000 0.843490
v 0.100000 0.100000 0.843490
v 0.337382 -0.049391 -0.384942
v 0.100000 -0.100000 0.064416
v 0.337382 0.049391 -0.384942
v 0.100000 0.100000 0.064416
v 0.337382 -0.049391 -0.194896
v 0.337382 0.049391 -0.194896
v 0.100000 -0.100000 -0.371659
v 0.100000 0.100000 -0.371659
v 0.192322 0.080317 -0.376825
v 0.192322 -0.080317 -0.376825
v 0.080465 -0.030935 -4.250995
v 0.127190 -0.011329 -4.256161
v 0.080465 0.030935 -4.250995
v 0.127190 0.011329 -4.256161
v 0.141667 0.037771 -0.480322
v 0.098014 0.047027 -0.477846
v 0.098014 -0.047027 -0.477846
v 0.141667 -0.037771 -0.480322
v 0.118106 0.136212 0.936773
v 0.118106 -0.136212 0.936773
v 0.118106 0.136212 1.087080
v 0.118106 -0.136212 1.087080
v -0.192322 -0.080317 -0.067781
v -0.192322 0.080317 -0.067781
v -0.453063 -0.019551 -0.437301
v -0.453063 -0.019551 -0.512528
v -0.100000 -0.100000 0.886907
v -0.100000 0.100000 0.886907
v -0.100000 -0.100000 0.013120
v -0.100000 0.100000 0.013120
v -0.453063 0.019551 -0.512528
v -0.453063 0.019551 -0.437301
v -0.100000 -0.100000 0.843490
v -0.100000 0.100000 0.843490
v -0.337382 -0.049391 -0.384942
v -0.100000 -0.100000 0.064416
v -0.337382 0.049391 -0.384942
v -0.100000 0.100000 0.064416
v -0.337382 -0.049391 -0.194896
v -0.337382 0.049391 -0.194896
v -0.100000 -0.100000 -0.371659
v -0.100000 0.100000 -0.371659
v 0.000000 -0.100000 0.013120
v 0.000000 0.100000 0.013120
v 0.000000 -0.100000 0.886907
v 0.000000 0.100000 0.886907
v 0.000000 0.100000 0.843490
v 0.000000 -0.100000 0.843490
v 0.000000 -0.100000 0.064416
v 0.000000 0.100000 0.064416
v 0.000000 -0.100000 -0.371659
v 0.000000 0.100000 -0.371659
v -0.192322 0.080317 -0.376825
v -0.192322 -0.080317 -0.376825
v -0.080465 -0.030935 -4.250995
v -0.127190 -0.011329 -4.256161
v -0.080465 0.030935 -4.250995
v -0.127190 0.011329 -4.256161
v 0.000000 0.030935 -4.250995
v 0.000000 -0.030935 -4.250995
v 0.000000 -0.030935 -4.746344
v -0.141667 0.037771 -0.480322
v 0.000000 0.047027 -0.477846
v -0.098014 0.047027 -0.477846
v -0.098014 -0.047027 -0.477846
v -0.141667 -0.037771 -0.480322
v 0.000000 -0.047027 -0.477846
v -0.118106 0.136212 0.936773
v -0.118106 -0.136212 0.936773
v 0.000000 -0.136212 0.936773
v 0.000000 0.136212 0.936773
v -0.118106 0.136212 1.087080
v -0.118106 -0.136212 1.087080
v 0.000000 -0.136212 1.087080
v 0.000000 0.136212 1.087080
vt 0.3408 0.3575
vt 0.2563 0.4060
vt 0.2656 0.3738
vt 0.3307 0.3375
vt 0.2715 0.2762
vt 0.2799 0.2498
vt 0.3096 0.2710
vt 0.3007 0.2728
vt 0.3633 0.3338
vt 0.3633 0.3832
vt 0.3526 0.3832
vt 0.3526 0.3338
vt 0.0010 0.1301
vt 0.0001 0.1151
vt 0.8490 0.1137
vt 0.8502 0.1284
vt 0.3633 0.3091
vt 0.3526 0.3091
vt 0.2037 0.3783
vt 0.2291 0.3520
vt 0.2291 0.2675
vt 0.2493 0.2293
vt 0.5557 0.3091
vt 0.5557 0.3338
vt 0.5557 0.3832
vt 0.9999 0.0944
vt 0.2473 0.4172
vt 0.1997 0.3914
vt 0.1763 0.3764
vt 0.1763 0.3883
vt 0.3131 0.3065
vt 0.2793 0.3304
vt 0.3028 0.2843
vt 0.2614 0.3181
vt 0.0004 0.1630
vt 0.0010 0.1480
vt 0.8508 0.1367
vt 0.8532 0.1517
vt 0.2748 0.4259
vt 0.3524 0.3764
vt 0.2030 0.2715
vt 0.2972 0.2808
vt 0.2656 0.4352
vt 0.5557 0.1857
vt 0.5557 0.2104
vt 0.3633 0.2104
vt 0.3633 0.1857
vt 0.3526 0.2104
vt 0.3526 0.1857
vt 0.8598 0.1718
vt 0.5020 0.4179
vt 0.5032 0.4698
vt 0.4865 0.4714
vt 0.4884 0.4145
vt 0.1763 0.2722
vt 0.0001 0.0928
vt 0.8492 0.0941
vt 0.0007 0.1855
vt 0.2414 0.1857
vt 0.2470 0.2078
vt 0.2207 0.2140
vt 0.2152 0.1923
vt 0.2115 0.2389
vt 0.2217 0.2242
vt 0.1763 0.2417
vt 0.2005 0.2412
vt 0.4896 0.3834
vt 0.4625 0.4246
vt 0.4305 0.3962
vt 0.5084 0.3874
vt 0.5060 0.5080
vt 0.4825 0.5098
vt 0.4564 0.4652
vt 0.4305 0.4846
vt 0.0117 0.3575
vt 0.0218 0.3375
vt 0.0869 0.3738
vt 0.0962 0.4060
vt 0.0810 0.2762
vt 0.0518 0.2728
vt 0.0429 0.2710
vt 0.0726 0.2498
vt 0.3633 0.2844
vt 0.3526 0.2844
vt 0.3526 0.2351
vt 0.3633 0.2351
vt 0.0011 0.0555
vt 0.8503 0.0598
vt 0.8490 0.0745
vt 0.0002 0.0705
vt 0.1235 0.3520
vt 0.1488 0.3783
vt 0.1234 0.2675
vt 0.1032 0.2293
vt 0.5557 0.2844
vt 0.5557 0.2351
vt 0.1528 0.3914
vt 0.1052 0.4172
vt 0.0394 0.3065
vt 0.0497 0.2843
vt 0.0732 0.3304
vt 0.0911 0.3181
vt 0.0006 0.0226
vt 0.8534 0.0366
vt 0.8509 0.0516
vt 0.0012 0.0376
vt 0.0777 0.4259
vt 0.0001 0.3764
vt 0.1495 0.2715
vt 0.0553 0.2808
vt 0.0870 0.4352
vt 0.8600 0.0165
vt 0.3590 0.4179
vt 0.3727 0.4145
vt 0.3745 0.4714
vt 0.3578 0.4698
vt 0.0010 0.0001
vt 0.1111 0.1857
vt 0.1373 0.1923
vt 0.1319 0.2140
vt 0.1055 0.2078
vt 0.1308 0.2242
vt 0.1410 0.2389
vt 0.1520 0.2412
vt 0.3714 0.3834
vt 0.3986 0.4246
vt 0.3526 0.3874
vt 0.3786 0.5098
vt 0.3550 0.5080
vt 0.4046 0.4652
vn 0.2085 0.9780 0.0000
vn -0.7408 0.0000 -0.6717
vn 1.0000 0.0000 0.0000
vn 0.3037 -0.9527 -0.0067
vn 0.0000 -1.0000 0.0000
vn 0.6591 0.0000 0.7521
vn -0.0559 0.0000 -0.9984
vn 0.3804 -0.9228 -0.0618
vn 0.2498 0.9683 0.0000
vn 0.3037 0.9527 -0.0067
vn 0.0000 1.0000 0.0000
vn 0.2085 -0.9780 0.0000
vn 0.9025 0.0000 0.4307
vn 0.2498 -0.9683 0.0000
vn 0.0000 0.9923 -0.1239
vn 0.9400 0.0000 -0.3413
vn 0.0000 -1.0000 -0.0043
vn 1.0000 0.0000 -0.0038
vn 0.0000 1.0000 -0.0043
vn 0.3647 0.9148 -0.1735
vn 0.9679 0.0000 -0.2512
vn 0.0000 0.8948 -0.4464
vn 0.8982 -0.0000 -0.4396
vn 0.0000 -0.8948 -0.4464
vn 0.1628 0.8818 -0.4426
vn 0.1628 -0.8818 -0.4426
vn 0.0000 -0.8092 -0.5876
vn 0.0000 0.8092 -0.5876
vn 0.0000 0.0000 1.0000
vn -0.2085 0.9780 0.0000
vn 0.7408 0.0000 -0.6717
vn -1.0000 0.0000 0.0000
vn -0.3037 -0.9527 -0.0067
vn -0.6591 0.0000 0.7521
vn 0.0559 0.0000 -0.9984
vn -0.3804 -0.9228 -0.0618
vn -0.2498 0.9683 0.0000
vn -0.3037 0.9527 -0.0067
vn -0.2085 -0.9780 0.0000
vn -0.9025 0.0000 0.4307
vn -0.2498 -0.9683 0.0000
vn -0.9400 0.0000 -0.3413
vn -1.0000 0.0000 -0.0038
vn -0.3647 0.9148 -0.1735
vn -0.9679 0.0000 -0.2512
vn -0.8982 -0.0000 -0.4396
vn -0.1628 0.8818 -0.4426
vn -0.1628 -0.8818 -0.4426
usemtl None
s off
f 20/1/1 8/2/1 2/3/1 21/4/1
f 13/5/2 15/6/2 9/7/2 4/8/2
f 11/9/3 12/10/3 6/11/3 5/12/3
f 30/13/4 29/14/4 23/15/4 24/16/4
f 60/17/5 11/9/5 5/12/5 57/18/5
f 8/2/6 7/19/6 1/20/6 2/3/6
f 22/21/7 21/22/7 15/6/7 13/5/7
f 61/23/5 14/24/5 11/9/5 60/17/5
f 14/24/3 16/25/3 12/10/3 11/9/3
f 24/16/8 23/15/8 73/26/8
f 7/19/3 8/2/3 16/27/3 14/28/3
f 55/29/5 7/19/5 14/28/5 61/30/5
f 15/31/9 18/32/9 10/33/9 9/7/9
f 2/3/6 1/20/6 17/34/6 18/32/6
f 28/35/10 27/36/10 26/37/10 25/38/10
f 56/39/11 8/2/11 20/1/11 64/40/11
f 7/19/12 19/41/12 22/21/12 1/20/12
f 1/20/12 22/21/12 13/5/12 17/34/12
f 10/33/3 3/42/3 4/8/3 9/7/3
f 18/32/13 17/34/13 3/42/13 10/33/13
f 8/2/11 56/39/11 62/43/11 16/27/11
f 17/34/14 13/5/14 4/8/14 3/42/14
f 21/4/1 2/3/1 18/32/1 15/31/1
f 16/44/11 62/45/11 59/46/11 12/47/11
f 12/47/11 59/46/11 58/48/11 6/49/11
f 71/50/15 25/38/15 73/26/15
f 5/51/16 6/52/16 31/53/16 32/54/16
f 7/19/5 55/29/5 63/55/5 19/41/5
f 29/14/17 79/56/17 72/57/17 23/15/17
f 27/36/18 30/13/18 24/16/18 26/37/18
f 75/58/19 28/35/19 25/38/19 71/50/19
f 25/38/20 26/37/20 73/26/20
f 26/37/21 24/16/21 73/26/21
f 23/15/5 72/57/5 73/26/5
f 64/59/22 20/60/22 28/61/22 75/62/22
f 21/22/23 22/21/23 30/63/23 27/64/23
f 19/41/24 63/55/24 79/65/24 29/66/24
f 20/60/25 21/22/25 27/64/25 28/61/25
f 22/21/26 19/41/26 29/66/26 30/63/26
f 82/67/5 32/54/5 34/68/5 86/69/5
f 57/70/27 5/51/27 32/54/27 82/67/27
f 6/52/28 58/71/28 83/72/28 31/53/28
f 34/68/29 33/73/29 87/74/29 86/69/29
f 31/53/11 83/72/11 87/74/11 33/73/11
f 32/54/3 31/53/3 33/73/3 34/68/3
f 54/75/30 65/76/30 36/77/30 42/78/30
f 47/79/31 38/80/31 43/81/31 49/82/31
f 45/83/32 39/84/32 40/85/32 46/86/32
f 78/87/33 68/88/33 67/89/33 77/90/33
f 60/17/5 57/18/5 39/84/5 45/83/5
f 42/78/34 36/77/34 35/91/34 41/92/34
f 66/93/35 47/79/35 49/82/35 65/94/35
f 61/23/5 60/17/5 45/83/5 48/95/5
f 48/95/32 45/83/32 46/86/32 50/96/32
f 68/88/36 73/26/36 67/89/36
f 41/92/32 48/97/32 50/98/32 42/78/32
f 55/29/5 61/30/5 48/97/5 41/92/5
f 49/99/37 43/81/37 44/100/37 52/101/37
f 36/77/34 52/101/34 51/102/34 35/91/34
f 76/103/38 69/104/38 70/105/38 74/106/38
f 56/107/11 64/108/11 54/75/11 42/78/11
f 41/92/39 35/91/39 66/93/39 53/109/39
f 35/91/39 51/102/39 47/79/39 66/93/39
f 44/100/32 43/81/32 38/80/32 37/110/32
f 52/101/40 44/100/40 37/110/40 51/102/40
f 42/78/11 50/98/11 62/111/11 56/107/11
f 51/102/41 37/110/41 38/80/41 47/79/41
f 65/76/30 49/99/30 52/101/30 36/77/30
f 50/96/11 46/86/11 59/46/11 62/45/11
f 46/86/11 40/85/11 58/48/11 59/46/11
f 71/112/15 73/26/15 69/104/15
f 39/113/42 81/114/42 80/115/42 40/116/42
f 41/92/5 53/109/5 63/55/5 55/29/5
f 77/90/17 67/89/17 72/57/17 79/56/17
f 74/106/43 70/105/43 68/88/43 78/87/43
f 75/117/19 71/112/19 69/104/19 76/103/19
f 69/104/44 73/26/44 70/105/44
f 70/105/45 73/26/45 68/88/45
f 67/89/5 73/26/5 72/57/5
f 64/118/22 75/119/22 76/120/22 54/121/22
f 65/94/46 74/122/46 78/123/46 66/93/46
f 53/109/24 77/124/24 79/65/24 63/55/24
f 54/121/47 76/120/47 74/122/47 65/94/47
f 66/93/48 78/123/48 77/124/48 53/109/48
f 82/125/5 86/69/5 85/126/5 81/114/5
f 57/127/27 82/125/27 81/114/27 39/113/27
f 40/116/28 80/115/28 83/128/28 58/129/28
f 85/126/29 86/69/29 87/74/29 84/130/29
f 80/115/11 84/130/11 87/74/11 83/128/11
f 81/114/32 85/126/32 84/130/32 80/115/32
